<svg width="59" height="62" viewBox="0 0 59 62" fill="none" xmlns="http://www.w3.org/2000/svg">
<g clip-path="url(#clip0_102_2)">
<path d="M18.8317 1.70595C9.76501 5.57261 2.29834 16.1059 2.29834 24.7726C2.29834 38.1059 14.165 49.8393 27.2317 49.4393C31.8983 49.3059 31.765 49.1726 25.4983 48.2393C21.765 47.7059 17.4983 46.6393 16.0317 45.8393C12.8317 44.1059 4.96501 35.3059 4.96501 33.4393C4.96501 32.7726 6.83167 34.2393 9.09834 36.9059C14.965 43.5726 19.4983 45.5726 28.6983 45.5726C37.765 45.5726 43.6317 42.5059 48.565 35.0393C50.2983 32.5059 51.6317 31.1726 51.6317 31.8393C51.6317 35.0393 43.365 44.1059 38.4317 46.3726C32.2983 49.0393 31.8983 50.3726 37.765 48.2393C42.4317 46.3726 48.565 40.9059 51.0983 35.9726C53.4983 31.3059 53.4983 18.5059 51.0983 13.7059C48.565 8.90595 40.4317 1.83928 36.565 1.03928C29.0983 -0.560715 23.4983 -0.294048 18.8317 1.70595ZM25.0983 13.7059L28.565 17.9726L31.4983 13.7059C33.6317 10.6393 35.4983 9.57261 38.4317 9.57261C40.565 9.57261 42.2983 9.83928 42.2983 10.2393C42.2983 10.5059 40.0317 14.3726 37.0983 18.7726C32.4317 25.9726 32.0317 27.4393 32.6983 33.4393L33.365 40.2393H28.4317H23.6317V32.9059C23.6317 26.6393 22.965 24.3726 18.965 18.5059C16.4317 14.7726 14.2983 11.1726 14.2983 10.6393C14.2983 9.97261 15.8983 9.57261 18.0317 9.57261C20.4317 9.57261 22.6983 10.9059 25.0983 13.7059Z" fill="#E1DAD1"/>
<path d="M56.0317 35.7062C54.0317 41.9728 46.2983 50.3728 39.765 53.0395C33.8983 55.4395 22.165 55.4395 16.165 52.9062C13.4983 51.8395 10.8317 51.1728 10.2983 51.5728C8.96499 52.3728 0.964987 43.4395 0.964987 41.3062C0.964987 40.5062 0.564987 40.1062 0.164987 40.6395C-1.16835 41.9728 5.89832 53.0395 9.89832 55.7062C19.4983 62.2395 31.8983 63.5728 41.6317 59.0395C51.365 54.6395 59.365 42.3728 58.0317 33.5728C57.765 30.7728 57.365 31.0395 56.0317 35.7062Z" fill="#E1DAD1"/>
</g>
<defs>
<clipPath id="clip0_102_2">
<rect width="59" height="62" fill="white"/>
</clipPath>
</defs>
</svg>
